<mxfile host="app.diagrams.net" modified="2023-08-11T12:45:10.743Z" agent="Mozilla/5.0 (Windows NT 10.0; Win64; x64; rv:109.0) Gecko/20100101 Firefox/116.0" etag="0Bh8mAlNDEkC6RFcw-Aj" version="21.3.2" type="device">
  <diagram name="Page-1" id="7gV1qHuuUEI_JOBfro0t">
    <mxGraphModel dx="1969" dy="920" grid="1" gridSize="10" guides="1" tooltips="1" connect="1" arrows="1" fold="1" page="1" pageScale="1" pageWidth="850" pageHeight="1100" math="0" shadow="0">
      <root>
        <mxCell id="0" />
        <mxCell id="1" parent="0" />
        <mxCell id="9awPVIiC9BA3GDAkzCDk-24" value="" style="shape=flexArrow;endArrow=classic;startArrow=classic;html=1;rounded=0;exitX=0.5;exitY=0;exitDx=0;exitDy=0;" edge="1" parent="1" source="9awPVIiC9BA3GDAkzCDk-20" target="9awPVIiC9BA3GDAkzCDk-4">
          <mxGeometry width="100" height="100" relative="1" as="geometry">
            <mxPoint x="370" y="450" as="sourcePoint" />
            <mxPoint x="760" y="210" as="targetPoint" />
            <Array as="points">
              <mxPoint x="283" y="460" />
              <mxPoint x="470" y="460" />
            </Array>
          </mxGeometry>
        </mxCell>
        <mxCell id="9awPVIiC9BA3GDAkzCDk-22" value="" style="rounded=1;whiteSpace=wrap;html=1;" vertex="1" parent="1">
          <mxGeometry x="495" y="510" width="260" height="170" as="geometry" />
        </mxCell>
        <mxCell id="9awPVIiC9BA3GDAkzCDk-20" value="" style="rounded=1;whiteSpace=wrap;html=1;" vertex="1" parent="1">
          <mxGeometry x="153" y="510" width="260" height="170" as="geometry" />
        </mxCell>
        <mxCell id="9awPVIiC9BA3GDAkzCDk-4" value="&lt;font style=&quot;font-size: 48px;&quot;&gt;&lt;b&gt;BMS&lt;/b&gt;&lt;/font&gt;" style="rounded=1;whiteSpace=wrap;html=1;" vertex="1" parent="1">
          <mxGeometry x="385" y="310" width="170" height="100" as="geometry" />
        </mxCell>
        <mxCell id="9awPVIiC9BA3GDAkzCDk-10" value="" style="sketch=0;outlineConnect=0;fontColor=#FFFFFF&#xa;gradientColor=none;fillColor=#000000;strokeColor=none;dashed=0;verticalLabelPosition=bottom;verticalAlign=top;align=center;html=1;fontSize=12;fontStyle=0;aspect=fixed;pointerEvents=1;shape=mxgraph.aws4.emr_engine;" vertex="1" parent="1">
          <mxGeometry x="550" y="538.27" width="150" height="113.46" as="geometry" />
        </mxCell>
        <mxCell id="9awPVIiC9BA3GDAkzCDk-18" value="" style="rounded=1;whiteSpace=wrap;html=1;" vertex="1" parent="1">
          <mxGeometry x="325" y="60" width="290" height="190" as="geometry" />
        </mxCell>
        <mxCell id="9awPVIiC9BA3GDAkzCDk-14" value="" style="shape=image;html=1;verticalAlign=top;verticalLabelPosition=bottom;labelBackgroundColor=#ffffff;imageAspect=0;aspect=fixed;image=https://cdn3.iconfinder.com/data/icons/energy-and-power-glyph-24-px/24/Automotive_battery_battery_charging_car_battery_truck_battery_vehicle_battery-128.png" vertex="1" parent="1">
          <mxGeometry x="278" y="535" width="120" height="120" as="geometry" />
        </mxCell>
        <mxCell id="9awPVIiC9BA3GDAkzCDk-15" value="" style="shape=image;html=1;verticalAlign=top;verticalLabelPosition=bottom;labelBackgroundColor=#ffffff;imageAspect=0;aspect=fixed;image=https://cdn3.iconfinder.com/data/icons/energy-and-power-glyph-24-px/24/Automotive_battery_battery_charging_car_battery_truck_battery_vehicle_battery-128.png" vertex="1" parent="1">
          <mxGeometry x="170" y="535" width="120" height="120" as="geometry" />
        </mxCell>
        <mxCell id="9awPVIiC9BA3GDAkzCDk-16" value="&lt;font style=&quot;font-size: 48px;&quot;&gt;&lt;b&gt;Output&lt;/b&gt;&lt;/font&gt;" style="rounded=1;whiteSpace=wrap;html=1;" vertex="1" parent="1">
          <mxGeometry y="310" width="210" height="100" as="geometry" />
        </mxCell>
        <mxCell id="9awPVIiC9BA3GDAkzCDk-5" value="" style="shape=image;html=1;verticalAlign=top;verticalLabelPosition=bottom;labelBackgroundColor=#ffffff;imageAspect=0;aspect=fixed;image=https://cdn3.iconfinder.com/data/icons/energy-and-power-glyph-24-px/24/Wind_energy_wind_power_wind_turbine_windmill_windmill_tower-128.png" vertex="1" parent="1">
          <mxGeometry x="410" y="135" width="110" height="110" as="geometry" />
        </mxCell>
        <mxCell id="9awPVIiC9BA3GDAkzCDk-7" value="" style="shape=image;html=1;verticalAlign=top;verticalLabelPosition=bottom;labelBackgroundColor=#ffffff;imageAspect=0;aspect=fixed;image=https://cdn2.iconfinder.com/data/icons/business-and-education-1/512/133_Solar_Panel_Energy_technology_smart_city_technology_smart-128.png" vertex="1" parent="1">
          <mxGeometry x="340" y="65" width="110" height="110" as="geometry" />
        </mxCell>
        <mxCell id="9awPVIiC9BA3GDAkzCDk-8" value="&lt;table cellpadding=&quot;0&quot; cellspacing=&quot;0&quot; style=&quot;width:100%;height:100%;&quot;&gt;&lt;tr style=&quot;height:25%;&quot;&gt;&lt;td&gt;&lt;/td&gt;&lt;/tr&gt;&lt;tr style=&quot;height:75%;&quot;&gt;&lt;td align=&quot;left&quot; style=&quot;padding-left:11%;width:100%&quot;&gt;T&lt;/td&gt;&lt;/tr&gt;&lt;/table&gt;" style="shape=mxgraph.pid.compressors.centrifugal_compressor_-_turbine_driven;dashed=0;fontSize=8;html=1;overflow=fill;" vertex="1" parent="1">
          <mxGeometry x="490" y="85" width="110" height="80" as="geometry" />
        </mxCell>
        <mxCell id="9awPVIiC9BA3GDAkzCDk-32" value="" style="shape=flexArrow;endArrow=classic;html=1;rounded=0;exitX=0;exitY=0.5;exitDx=0;exitDy=0;entryX=1;entryY=0.5;entryDx=0;entryDy=0;" edge="1" parent="1" source="9awPVIiC9BA3GDAkzCDk-4" target="9awPVIiC9BA3GDAkzCDk-16">
          <mxGeometry width="50" height="50" relative="1" as="geometry">
            <mxPoint x="400" y="420" as="sourcePoint" />
            <mxPoint x="450" y="370" as="targetPoint" />
          </mxGeometry>
        </mxCell>
        <mxCell id="9awPVIiC9BA3GDAkzCDk-34" value="" style="shape=flexArrow;endArrow=classic;html=1;rounded=0;entryX=0.5;entryY=0;entryDx=0;entryDy=0;exitX=0.5;exitY=1;exitDx=0;exitDy=0;" edge="1" parent="1" source="9awPVIiC9BA3GDAkzCDk-18" target="9awPVIiC9BA3GDAkzCDk-4">
          <mxGeometry width="50" height="50" relative="1" as="geometry">
            <mxPoint x="570" y="280" as="sourcePoint" />
            <mxPoint x="450" y="370" as="targetPoint" />
          </mxGeometry>
        </mxCell>
        <mxCell id="9awPVIiC9BA3GDAkzCDk-35" value="" style="shape=flexArrow;endArrow=classic;html=1;rounded=0;exitX=0.5;exitY=0;exitDx=0;exitDy=0;entryX=0.5;entryY=1;entryDx=0;entryDy=0;" edge="1" parent="1" source="9awPVIiC9BA3GDAkzCDk-22" target="9awPVIiC9BA3GDAkzCDk-4">
          <mxGeometry width="50" height="50" relative="1" as="geometry">
            <mxPoint x="670" y="420" as="sourcePoint" />
            <mxPoint x="720" y="370" as="targetPoint" />
            <Array as="points">
              <mxPoint x="625" y="460" />
              <mxPoint x="470" y="460" />
            </Array>
          </mxGeometry>
        </mxCell>
        <mxCell id="9awPVIiC9BA3GDAkzCDk-36" value="" style="rounded=0;whiteSpace=wrap;html=1;strokeColor=#FFFFFF;" vertex="1" parent="1">
          <mxGeometry x="416" y="456" width="120" height="3" as="geometry" />
        </mxCell>
        <mxCell id="9awPVIiC9BA3GDAkzCDk-38" value="" style="rounded=0;whiteSpace=wrap;html=1;strokeColor=#FFFFFF;" vertex="1" parent="1">
          <mxGeometry x="418" y="461" width="120" height="3" as="geometry" />
        </mxCell>
        <mxCell id="9awPVIiC9BA3GDAkzCDk-39" value="" style="rounded=0;whiteSpace=wrap;html=1;strokeColor=#FFFFFF;" vertex="1" parent="1">
          <mxGeometry x="433" y="458" width="120" height="3" as="geometry" />
        </mxCell>
      </root>
    </mxGraphModel>
  </diagram>
</mxfile>
